<svg width="15" height="15" viewBox="0 0 278 278" fill="none" xmlns="http://www.w3.org/2000/svg">
<path d="M274.804 58.127L219.013 2.335C217.507 0.829 215.498 0 213.356 0C211.213 0 209.205 0.829 207.7 2.335L28.281 181.754C25.447 184.588 22.285 190.037 21.231 193.901L0.280988 270.718C-0.240012 272.63 -0.0270123 274.339 0.882988 275.531C1.67499 276.569 2.94399 277.14 4.45499 277.14C5.07399 277.14 5.73499 277.045 6.41899 276.859L83.237 255.908C87.102 254.854 92.551 251.692 95.384 248.859L274.804 69.44C276.31 67.934 277.139 65.925 277.139 63.783C277.139 61.641 276.31 59.632 274.804 58.127ZM65.155 235.776L61.453 239.478C60.286 240.645 58.029 241.955 56.437 242.389L29.511 249.732C27.919 250.166 26.972 249.219 27.406 247.627L34.749 220.701C35.183 219.109 36.493 216.852 37.66 215.685L41.362 211.983C42.529 210.816 44.438 210.816 45.605 211.983L65.154 231.532C66.322 232.7 66.322 234.61 65.155 235.776ZM221.367 76.985L109.119 189.233C106.19 192.162 102.351 193.627 98.513 193.627C94.675 193.627 90.835 192.162 87.907 189.233C82.049 183.376 82.049 173.878 87.907 168.02L200.154 55.772C206.011 49.915 215.509 49.915 221.367 55.772C227.225 61.63 227.225 71.128 221.367 76.985Z" fill="#9b9b9b"/>
</svg>
