<svg width="459" height="459" viewBox="0 0 459 459" fill="none" xmlns="http://www.w3.org/2000/svg">
<g clip-path="url(#clip0_1_2)">
<path d="M229.5 0C102.53 0 0 102.845 0 229.5C0 356.301 102.719 459 229.5 459C356.851 459 459 355.815 459 229.5C459 102.547 356.079 0 229.5 0ZM347.601 364.67C314.887 393.338 273.4 409 229.5 409C185.608 409 144.128 393.343 111.417 364.686C106.992 360.81 104.992 354.852 106.172 349.089C117.472 293.894 152.629 250.364 197.381 236.042C174.028 222.218 158 193.817 158 161C158 114.608 190.012 77 229.5 77C268.988 77 301 114.608 301 161C301 193.812 284.977 222.209 261.631 236.035C306.382 250.354 341.54 293.883 352.844 349.073C354.023 354.828 352.019 360.798 347.601 364.67Z" fill="#9b9b9b"/>
</g>
<defs>
<clipPath id="clip0_1_2">
<rect width="459" height="459" fill="white"/>
</clipPath>
</defs>
</svg>
